<?xml version="1.0" encoding="UTF-8" standalone="no"?>
<!DOCTYPE svg PUBLIC "-//W3C//DTD SVG 1.1//EN" "http://www.w3.org/Graphics/SVG/1.1/DTD/svg11.dtd">
<svg width="100%" height="100%" viewBox="0 0 128 128" version="1.1" xmlns="http://www.w3.org/2000/svg" xmlns:xlink="http://www.w3.org/1999/xlink" xml:space="preserve" xmlns:serif="http://www.serif.com/" style="fill-rule:evenodd;clip-rule:evenodd;stroke-linecap:round;stroke-linejoin:round;stroke-miterlimit:1.5;">
    <g transform="matrix(1,0,0,1,-3.53369,0.823044)">
        <path d="M5.587,35.729C15.512,36.135 24.742,41.53 24.993,50.461C25.122,55.037 21.404,70.209 31.392,73.401C36.474,75.024 43.417,72.544 45.705,83.217C46.793,88.295 51.088,88.121 53.913,88.286C58.79,88.57 59.591,93.861 66.476,104.078" style="fill:none;stroke:url(#_Linear1);stroke-width:1px;"/>
    </g>
    <g transform="matrix(1,0,0,1,16.309,-5.73342)">
        <path d="M67.256,82.238C56.107,98.248 46.044,111.959 46.044,111.959C46.044,111.959 61.962,100.7 76.882,90.409C77.707,89.839 67.988,81.187 67.256,82.238Z" style="fill:url(#_Linear2);"/>
        <g transform="matrix(0.184467,-0.198629,1.05795,0.982522,-32.505,15.8176)">
            <ellipse cx="72.491" cy="86.546" rx="6.847" ry="6.457" style="fill:rgb(127,127,127);"/>
        </g>
        <g transform="matrix(0.728159,0.685408,-0.685408,0.728159,67.3129,-50.9997)">
            <rect x="88.538" y="22.101" width="18.826" height="74.518" style="fill:url(#_Linear3);"/>
        </g>
    </g>
    <defs>
        <linearGradient id="_Linear1" x1="0" y1="0" x2="1" y2="0" gradientUnits="userSpaceOnUse" gradientTransform="matrix(60.8883,0,0,68.3482,5.58731,69.9036)"><stop offset="0" style="stop-color:white;stop-opacity:1"/><stop offset="0.52" style="stop-color:rgb(67,67,67);stop-opacity:1"/><stop offset="1" style="stop-color:black;stop-opacity:1"/></linearGradient>
        <linearGradient id="_Linear2" x1="0" y1="0" x2="1" y2="0" gradientUnits="userSpaceOnUse" gradientTransform="matrix(30.8869,0,0,29.8088,46.0445,97.0542)"><stop offset="0" style="stop-color:white;stop-opacity:1"/><stop offset="0.45" style="stop-color:rgb(54,54,54);stop-opacity:1"/><stop offset="1" style="stop-color:black;stop-opacity:1"/></linearGradient>
        <linearGradient id="_Linear3" x1="0" y1="0" x2="1" y2="0" gradientUnits="userSpaceOnUse" gradientTransform="matrix(18.8264,0,0,74.5183,88.5376,59.3602)"><stop offset="0" style="stop-color:rgb(170,170,170);stop-opacity:1"/><stop offset="0.14" style="stop-color:rgb(227,227,227);stop-opacity:1"/><stop offset="0.26" style="stop-color:rgb(250,250,250);stop-opacity:1"/><stop offset="0.57" style="stop-color:rgb(171,171,171);stop-opacity:1"/><stop offset="1" style="stop-color:black;stop-opacity:1"/></linearGradient>
    </defs>
</svg>
